<svg width="32" height="32" viewBox="0 0 32 32" fill="none" xmlns="http://www.w3.org/2000/svg">
<g clip-path="url(#clip0_800_10105)">
<path d="M27.0893 5.82639C25.0147 4.87407 22.8253 4.19498 20.5759 3.80612C20.5554 3.80231 20.5343 3.80504 20.5155 3.81392C20.4967 3.8228 20.4812 3.83738 20.4712 3.85559C20.1899 4.35599 19.8783 5.00865 19.6601 5.52159C17.2005 5.15332 14.7535 5.15332 12.3444 5.52159C12.1263 4.99719 11.8033 4.35599 11.5208 3.85559C11.5103 3.83779 11.4948 3.82357 11.4761 3.81477C11.4574 3.80597 11.4365 3.803 11.4161 3.80625C9.16651 4.19421 6.97693 4.87324 4.90254 5.82625C4.88479 5.83384 4.86984 5.84674 4.85974 5.86319C0.711205 12.0611 -0.425328 18.1065 0.132272 24.0771C0.133849 24.0917 0.138343 24.1058 0.145489 24.1187C0.152634 24.1315 0.162286 24.1428 0.173872 24.1519C2.91094 26.162 5.56227 27.3823 8.1644 28.1911C8.18464 28.1971 8.20623 28.1968 8.2263 28.1902C8.24636 28.1836 8.26394 28.1711 8.27667 28.1543C8.89214 27.3137 9.4408 26.4273 9.91134 25.4953C9.91781 25.4826 9.9215 25.4686 9.92217 25.4543C9.92284 25.44 9.92048 25.4257 9.91524 25.4124C9.91 25.3991 9.902 25.387 9.89177 25.377C9.88154 25.367 9.8693 25.3593 9.85587 25.3544C8.98547 25.0243 8.15681 24.6217 7.3596 24.1647C7.34507 24.1561 7.33286 24.1441 7.32405 24.1298C7.31524 24.1154 7.31011 24.0991 7.30911 24.0822C7.30811 24.0654 7.31127 24.0486 7.31831 24.0333C7.32535 24.0179 7.33605 24.0046 7.34947 23.9944C7.5172 23.8687 7.68507 23.738 7.8452 23.6059C7.85944 23.5941 7.87666 23.5866 7.89494 23.5841C7.91322 23.5816 7.93183 23.5843 7.94867 23.5919C13.1857 25.9829 18.8553 25.9829 24.0305 23.5919C24.0474 23.5838 24.0662 23.5808 24.0847 23.583C24.1032 23.5853 24.1207 23.5927 24.1352 23.6045C24.2955 23.7365 24.4632 23.8687 24.6323 23.9944C24.6457 24.0045 24.6565 24.0177 24.6636 24.033C24.6708 24.0482 24.674 24.065 24.6732 24.0818C24.6723 24.0986 24.6673 24.1149 24.6586 24.1294C24.65 24.1438 24.6379 24.1559 24.6235 24.1645C23.826 24.6303 22.9906 25.0279 22.1261 25.3531C22.1127 25.3582 22.1005 25.3661 22.0904 25.3763C22.0802 25.3864 22.0723 25.3986 22.0672 25.4121C22.0621 25.4255 22.0598 25.4398 22.0606 25.4542C22.0614 25.4685 22.0653 25.4826 22.0719 25.4953C22.5524 26.426 23.1011 27.3124 23.7052 28.1529C23.7175 28.1703 23.735 28.1833 23.7552 28.1901C23.7753 28.197 23.7971 28.1973 23.8175 28.1911C26.4321 27.3821 29.0835 26.1619 31.8205 24.1519C31.8323 24.1433 31.8421 24.1322 31.8493 24.1196C31.8565 24.1069 31.8609 24.0928 31.8623 24.0783C32.5295 17.1756 30.7447 11.1797 27.1309 5.86439C27.1221 5.84712 27.1073 5.83372 27.0893 5.82639ZM10.6933 20.4416C9.11667 20.4416 7.81747 18.994 7.81747 17.2163C7.81747 15.4387 9.09147 13.9911 10.6935 13.9911C12.3079 13.9911 13.5944 15.4513 13.5692 17.2164C13.5692 18.994 12.2952 20.4416 10.6933 20.4416ZM21.3264 20.4416C19.7497 20.4416 18.4505 18.994 18.4505 17.2163C18.4505 15.4387 19.7244 13.9911 21.3264 13.9911C22.9408 13.9911 24.2273 15.4513 24.2021 17.2164C24.2021 18.994 22.9408 20.4416 21.3264 20.4416Z" fill="white"/>
</g>
<defs>
<clipPath id="clip0_800_10105">
<rect width="32" height="32" fill="white"/>
</clipPath>
</defs>
</svg>
