<svg xmlns="http://www.w3.org/2000/svg" width="64" height="37" viewBox="0 0 64 37" fill="none">
  <path fill-rule="evenodd" clip-rule="evenodd" d="M10.8041 1.92811V3.85621H24.3299H37.8557V5.36516V6.87411H38.6804H39.5052V5.36516V3.85621H50.3093H61.1134V5.36516V6.87411H62.5567H64V21.8798V36.8855H53.1959H42.3918V35.4185V33.9514H41.6082H40.8247V35.4185V36.8855H35.3814H29.9381V35.4185V33.9514H28.4966H27.0549L27.0327 32.2538L27.0103 30.5563L22.2887 30.5347L17.567 30.513V33.6993V36.8855H12.1237H6.68041V35.4185V33.9514H5.23711H3.79381V22.4666V10.9818H1.89691H0V5.49091V0H5.40206H10.8041V1.92811ZM2.30928 5.53282V8.71839H5.40206H8.49485V5.53282V2.34726H5.40206H2.30928V5.53282ZM12.3711 9.38904V12.5746H9.23711H6.10309V22.0904V31.6062L9.21649 31.5842L12.3299 31.5622L12.3515 28.3976L12.3731 25.233H18.5989H24.8247V15.7183V6.20347H18.5979H12.3711V9.38904ZM29.3608 18.9038V31.6042H32.4536H35.5464V28.4186V25.233H38.6804H41.8144V28.4196V31.6062L44.9278 31.5842L48.0412 31.5622V18.9038V6.24538L44.9278 6.22342L41.8144 6.20146V12.5317V18.8619H38.6804H35.5464V12.5327V6.20347H32.4536H29.3608V18.9038ZM52.5361 18.9038V31.6042H55.6701H58.8041V18.9038V6.20347H55.6701H52.5361V18.9038ZM18.5567 15.7183V18.8619H15.4639H12.3711V15.7183V12.5746H15.4639H18.5567V15.7183Z" fill="#B3B2B1"/>
  <path fill-rule="evenodd" clip-rule="evenodd" d="M2.30933 5.53286V8.71842H5.40211H8.49489V5.53286V2.34729H5.40211H2.30933V5.53286ZM12.3712 9.38907V12.5746H9.23716H6.10314V22.0904V31.6062L9.21654 31.5842L12.3299 31.5623L12.3516 28.3977L12.3732 25.2331H18.599H24.8248V15.7183V6.2035H18.598H12.3712V9.38907ZM29.3609 18.9038V31.6042H32.4537H35.5464V28.4186V25.2331H38.6805H41.8145V28.4196V31.6062L44.9279 31.5842L48.0413 31.5623V18.9038V6.24542L44.9279 6.22345L41.8145 6.20149V12.5317V18.8619H38.6805H35.5464V12.5327V6.2035H32.4537H29.3609V18.9038ZM52.5361 18.9038V31.6042H55.6702H58.8042V18.9038V6.2035H55.6702H52.5361V18.9038ZM18.5567 15.7183V18.8619H15.464H12.3712V15.7183V12.5746H15.464H18.5567V15.7183Z" fill="#FBFAF9"/>
</svg>
