<svg width="64" height="38" viewBox="0 0 64 38" fill="none" xmlns="http://www.w3.org/2000/svg">
<path fill-rule="evenodd" clip-rule="evenodd" d="M10.8041 2.48548V4.41358H24.3299H37.8557V5.92254V7.43149H38.6804H39.5052V5.92254V4.41358H50.3093H61.1134V5.92254V7.43149H62.5567H64V22.4372V37.4429H53.1959H42.3918V35.9758V34.5088H41.6082H40.8247V35.9758V37.4429H35.3814H29.9381V35.9758V34.5088H28.4966H27.0549L27.0327 32.8112L27.0103 31.1137L22.2887 31.092L17.567 31.0704V34.2566V37.4429H12.1237H6.68041V35.9758V34.5088H5.23711H3.79381V23.024V11.5392H1.89691H0V6.04828V0.557373H5.40206H10.8041V2.48548ZM2.30928 6.0902V9.27576H5.40206H8.49485V6.0902V2.90463H5.40206H2.30928V6.0902ZM12.3711 9.94641V13.132H9.23711H6.10309V22.6478V32.1635L9.21649 32.1416L12.3299 32.1196L12.3515 28.955L12.3731 25.7904H18.5989H24.8247V16.2756V6.76084H18.5979H12.3711V9.94641ZM29.3608 19.4612V32.1615H32.4536H35.5464V28.976V25.7904H38.6804H41.8144V28.977V32.1635L44.9278 32.1416L48.0412 32.1196V19.4612V6.80276L44.9278 6.78079L41.8144 6.75883V13.0891V19.4193H38.6804H35.5464V13.0901V6.76084H32.4536H29.3608V19.4612ZM52.5361 19.4612V32.1615H55.6701H58.8041V19.4612V6.76084H55.6701H52.5361V19.4612ZM18.5567 16.2756V19.4193H15.4639H12.3711V16.2756V13.132H15.4639H18.5567V16.2756Z" fill="#3C3837"/>
<path fill-rule="evenodd" clip-rule="evenodd" d="M2.30908 6.09011V9.27567H5.40187H8.49465V6.09011V2.90454H5.40187H2.30908V6.09011ZM12.3709 9.94632V13.1319H9.23692H6.1029V22.6477V32.1635L9.2163 32.1415L12.3297 32.1195L12.3513 28.9549L12.3729 25.7903H18.5987H24.8245V16.2755V6.76075H18.5977H12.3709V9.94632ZM29.3606 19.4611V32.1614H32.4534H35.5462V28.9759V25.7903H38.6802H41.8142V28.9769V32.1635L44.9276 32.1415L48.041 32.1195V19.4611V6.80267L44.9276 6.7807L41.8142 6.75874V13.089V19.4192H38.6802H35.5462V13.09V6.76075H32.4534H29.3606V19.4611ZM52.5359 19.4611V32.1614H55.6699H58.8039V19.4611V6.76075H55.6699H52.5359V19.4611ZM18.5565 16.2755V19.4192H15.4637H12.3709V16.2755V13.1319H15.4637H18.5565V16.2755Z" fill="white"/>
</svg>
